<?xml version="1.0" encoding="utf-8" standalone="no"?>
<!DOCTYPE svg PUBLIC "-//W3C//DTD SVG 1.1//EN"
  "http://www.w3.org/Graphics/SVG/1.1/DTD/svg11.dtd">
<!-- Created with matplotlib (https://matplotlib.org/) -->
<svg height="432pt" version="1.1" viewBox="0 0 576 432" width="576pt" xmlns="http://www.w3.org/2000/svg" xmlns:xlink="http://www.w3.org/1999/xlink">
 <metadata>
  <rdf:RDF xmlns:cc="http://creativecommons.org/ns#" xmlns:dc="http://purl.org/dc/elements/1.1/" xmlns:rdf="http://www.w3.org/1999/02/22-rdf-syntax-ns#">
   <cc:Work>
    <dc:type rdf:resource="http://purl.org/dc/dcmitype/StillImage"/>
    <dc:date>2021-08-26T15:44:27.942926</dc:date>
    <dc:format>image/svg+xml</dc:format>
    <dc:creator>
     <cc:Agent>
      <dc:title>Matplotlib v3.3.3, https://matplotlib.org/</dc:title>
     </cc:Agent>
    </dc:creator>
   </cc:Work>
  </rdf:RDF>
 </metadata>
 <defs>
  <style type="text/css">*{stroke-linecap:butt;stroke-linejoin:round;}</style>
 </defs>
 <g id="figure_1">
  <g id="patch_1">
   <path d="M 0 432 
L 576 432 
L 576 0 
L 0 0 
z
" style="fill:#ffffff;"/>
  </g>
  <g id="axes_1">
   <g id="patch_2">
    <path d="M 136.58125 353.3 
L 458.38125 353.3 
L 458.38125 31.5 
L 136.58125 31.5 
z
" style="fill:#ffffff;"/>
   </g>
   <g id="Quiver_1">
    <path clip-path="url(#p654af27f58)" d="M 137.633437 353.890887 
L 137.619067 352.684223 
L 136.56688 352.093336 
L 135.529063 352.709113 
L 135.543433 353.915777 
L 136.59562 354.506664 
L 137.633437 353.890887 
L 137.619067 352.684223 
"/>
    <path clip-path="url(#p654af27f58)" d="M 136.263468 302.217925 
L 136.266178 301.900142 
L 135.627903 302.212504 
L 136.608353 299.042812 
L 137.534597 302.228766 
L 136.901743 301.905563 
L 136.899032 302.223345 
L 136.263468 302.217925 
"/>
    <path clip-path="url(#p654af27f58)" d="M 136.604977 249.934753 
L 135.54824 250.517463 
L 135.524512 251.72398 
L 136.557523 252.347787 
L 137.61426 251.765077 
L 137.637988 250.55856 
L 136.604977 249.934753 
L 135.54824 250.517463 
"/>
    <path clip-path="url(#p654af27f58)" d="M 136.618413 201.268082 
L 137.644412 200.63281 
L 137.607249 199.426632 
L 136.544087 198.855727 
L 135.518088 199.491 
L 135.555251 200.697178 
L 136.618413 201.268082 
L 137.644412 200.63281 
"/>
    <path clip-path="url(#p654af27f58)" d="M 136.603935 150.189076 
L 137.637484 149.566162 
L 137.614799 148.359625 
L 136.558565 147.776003 
L 135.525016 148.398917 
L 135.547701 149.605454 
L 136.603935 150.189076 
L 137.637484 149.566162 
"/>
    <path clip-path="url(#p654af27f58)" d="M 136.62345 96.697163 
L 135.557913 97.263622 
L 135.515713 98.469634 
L 136.53905 99.109187 
L 137.604587 98.542727 
L 137.646787 97.336715 
L 136.62345 96.697163 
L 135.557913 97.263622 
"/>
    <path clip-path="url(#p654af27f58)" d="M 136.636535 45.618327 
L 135.564914 46.17319 
L 135.509629 47.378673 
L 136.525965 48.029292 
L 137.597586 47.474429 
L 137.652871 46.268946 
L 136.636535 45.618327 
L 135.564914 46.17319 
"/>
    <path clip-path="url(#p654af27f58)" d="M 187.662019 353.943359 
L 187.01866 353.944764 
L 187.664827 355.230078 
L 181.22702 353.31404 
L 187.656403 351.369922 
L 187.015852 352.658045 
L 187.659211 352.656641 
L 187.662019 353.943359 
"/>
    <path clip-path="url(#p654af27f58)" d="M 188.177406 303.111514 
L 187.286526 303.628304 
L 189.210986 304.893272 
L 178.751824 307.388539 
L 186.110244 299.547998 
L 186.252946 301.846546 
L 187.143825 301.329756 
L 188.177406 303.111514 
"/>
    <path clip-path="url(#p654af27f58)" d="M 188.265492 251.030502 
L 188.37626 251.635378 
L 189.475245 250.808966 
L 188.768296 257.190037 
L 185.845985 251.473574 
L 187.166506 251.856915 
L 187.055738 251.252038 
L 188.265492 251.030502 
"/>
    <path clip-path="url(#p654af27f58)" d="M 188.334582 199.862548 
L 188.533939 200.536514 
L 189.682515 199.463834 
L 189.654186 206.801572 
L 185.638715 200.659976 
L 187.186005 200.935229 
L 186.986648 200.261262 
L 188.334582 199.862548 
"/>
    <path clip-path="url(#p654af27f58)" d="M 188.125348 148.765573 
L 188.342315 149.230305 
L 189.054813 148.331639 
L 189.830285 153.629865 
L 186.266417 149.633441 
L 187.41285 149.664239 
L 187.195883 149.199507 
L 188.125348 148.765573 
"/>
    <path clip-path="url(#p654af27f58)" d="M 187.579919 97.495678 
L 187.987416 97.414982 
L 187.418527 96.680686 
L 191.735579 97.096216 
L 187.902703 99.125664 
L 188.148807 98.229975 
L 187.741311 98.310671 
L 187.579919 97.495678 
"/>
    <path clip-path="url(#p654af27f58)" d="M 187.517113 45.625622 
L 191.748292 45.118871 
L 190.2631 42.865998 
L 202.675479 45.025538 
L 191.124114 50.055122 
L 192.035296 47.515245 
L 187.804117 48.021997 
L 187.517113 45.625622 
"/>
    <path clip-path="url(#p654af27f58)" d="M 238.745552 353.817354 
L 238.228198 353.822926 
L 238.756696 354.852061 
L 233.566443 353.35572 
L 238.723264 351.747939 
L 238.217054 352.788218 
L 238.734408 352.782646 
L 238.745552 353.817354 
"/>
    <path clip-path="url(#p654af27f58)" d="M 239.789968 302.815422 
L 231.3465 317.720824 
L 234.041262 317.86041 
L 224.943431 326.575927 
L 227.741336 314.291689 
L 229.246525 316.53125 
L 237.689992 301.625848 
L 239.789968 302.815422 
"/>
    <path clip-path="url(#p654af27f58)" d="M 239.936388 251.298918 
L 237.009178 273.513783 
L 239.559643 272.632672 
L 234.393934 284.123808 
L 232.381194 271.686781 
L 234.616362 273.198486 
L 237.543572 250.983621 
L 239.936388 251.298918 
"/>
    <path clip-path="url(#p654af27f58)" d="M 239.946643 200.076401 
L 239.660318 223.91014 
L 242.08814 222.732469 
L 238.323189 234.75561 
L 234.848162 222.645492 
L 237.246992 223.881148 
L 237.533317 200.047409 
L 239.946643 200.076401 
"/>
    <path clip-path="url(#p654af27f58)" d="M 239.943936 148.900473 
L 241.48919 171.570195 
L 243.815037 170.202106 
L 241.02383 182.487868 
L 236.591299 170.694503 
L 239.081278 171.734327 
L 237.536024 149.064606 
L 239.943936 148.900473 
"/>
    <path clip-path="url(#p654af27f58)" d="M 239.897765 97.56291 
L 245.119579 115.330686 
L 247.094884 113.492372 
L 247.024171 126.091014 
L 240.148175 115.533957 
L 242.804009 116.011214 
L 237.582195 98.243439 
L 239.897765 97.56291 
"/>
    <path clip-path="url(#p654af27f58)" d="M 239.048598 45.65719 
L 254.410409 49.721005 
L 253.861025 47.079148 
L 264.601366 53.665182 
L 252.00932 54.078865 
L 253.793174 52.054243 
L 238.431363 47.990429 
L 239.048598 45.65719 
"/>
    <path clip-path="url(#p654af27f58)" d="M 288.617207 353.405404 
L 289.309559 354.393784 
L 290.511697 354.28838 
L 291.021483 353.194596 
L 290.329131 352.206216 
L 289.126993 352.31162 
L 288.617207 353.405404 
L 289.309559 354.393784 
"/>
    <path clip-path="url(#p654af27f58)" d="M 291.018887 302.352339 
L 288.416541 326.054092 
L 290.947328 325.117959 
L 286.031661 336.718261 
L 283.750079 324.327734 
L 286.017458 325.790684 
L 288.619804 302.088931 
L 291.018887 302.352339 
"/>
    <path clip-path="url(#p654af27f58)" d="M 291.025614 251.175357 
L 289.793761 294.767692 
L 292.240386 293.629598 
L 288.280707 305.59002 
L 285.002775 293.425074 
L 287.381224 294.699517 
L 288.613077 251.107183 
L 291.025614 251.175357 
"/>
    <path clip-path="url(#p654af27f58)" d="M 291.026092 200.059212 
L 291.142999 252.446469 
L 293.5538 251.234336 
L 289.960488 263.309885 
L 286.313318 251.250494 
L 288.729505 252.451855 
L 288.612598 200.064598 
L 291.026092 200.059212 
"/>
    <path clip-path="url(#p654af27f58)" d="M 291.025641 148.949442 
L 292.49878 202.640572 
L 294.878274 201.368081 
L 291.590361 213.530334 
L 287.640498 201.566666 
L 290.086188 202.706767 
L 288.613049 149.015637 
L 291.025641 148.949442 
"/>
    <path clip-path="url(#p654af27f58)" d="M 291.022711 97.812857 
L 294.470994 143.756598 
L 296.787406 142.372597 
L 294.08049 154.677204 
L 289.567214 142.914504 
L 292.064263 143.937234 
L 288.61598 97.993493 
L 291.022711 97.812857 
"/>
    <path clip-path="url(#p654af27f58)" d="M 290.915009 46.318075 
L 293.047631 50.938358 
L 294.733224 48.831226 
L 296.503578 61.305063 
L 288.159243 51.865633 
L 290.856305 51.949827 
L 288.723682 47.329544 
L 290.915009 46.318075 
"/>
    <path clip-path="url(#p654af27f58)" d="M 340.90524 352.917804 
L 341.287437 352.924334 
L 340.9183 352.153411 
L 344.720675 353.3653 
L 340.87912 354.446589 
L 341.274377 353.688726 
L 340.89218 353.682196 
L 340.90524 352.917804 
"/>
    <path clip-path="url(#p654af27f58)" d="M 342.046686 301.848615 
L 347.91653 319.961738 
L 349.840461 318.069724 
L 350.11673 330.665535 
L 342.952609 320.301841 
L 345.620579 320.705777 
L 339.750735 302.592654 
L 342.046686 301.848615 
"/>
    <path clip-path="url(#p654af27f58)" d="M 342.101288 251.041003 
L 344.656165 281.683597 
L 346.961053 280.280486 
L 344.35599 292.60706 
L 339.745589 280.882088 
L 342.251011 281.884131 
L 339.696133 251.241537 
L 342.101288 251.041003 
"/>
    <path clip-path="url(#p654af27f58)" d="M 342.104737 200.02014 
L 343.312964 234.909317 
L 345.683253 233.619759 
L 342.482824 245.805325 
L 338.447091 233.87035 
L 340.90091 234.992847 
L 339.692683 200.10367 
L 342.104737 200.02014 
"/>
    <path clip-path="url(#p654af27f58)" d="M 342.105378 148.968467 
L 342.508222 183.510276 
L 344.907485 182.275463 
L 341.428208 194.384361 
L 337.667477 182.359899 
L 340.094886 183.538422 
L 339.692042 148.996612 
L 342.105378 148.968467 
"/>
    <path clip-path="url(#p654af27f58)" d="M 342.100812 98.008994 
L 339.597163 126.450261 
L 342.107186 125.459798 
L 337.442687 137.163354 
L 334.894577 124.824882 
L 337.192961 126.238622 
L 339.696609 97.797355 
L 342.100812 98.008994 
"/>
    <path clip-path="url(#p654af27f58)" d="M 341.438173 47.903266 
L 331.36881 52.935474 
L 333.527192 54.554924 
L 321.114243 56.711185 
L 330.290414 48.078187 
L 330.289884 50.776562 
L 340.359247 45.744353 
L 341.438173 47.903266 
"/>
    <path clip-path="url(#p654af27f58)" d="M 391.982092 352.6639 
L 392.618192 352.667917 
L 391.990127 351.391701 
L 398.339074 353.34017 
L 391.966024 355.208299 
L 392.610158 353.940117 
L 391.974058 353.9361 
L 391.982092 352.6639 
"/>
    <path clip-path="url(#p654af27f58)" d="M 392.925827 301.473633 
L 396.086887 305.4842 
L 397.23539 303.042444 
L 401.862152 314.76097 
L 391.548878 307.524455 
L 394.191384 306.978204 
L 391.030323 302.967637 
L 392.925827 301.473633 
"/>
    <path clip-path="url(#p654af27f58)" d="M 393.184758 251.154031 
L 393.156331 253.842019 
L 395.582457 252.660859 
L 391.834796 264.6894 
L 388.342362 252.584291 
L 390.742966 253.816496 
L 390.771393 251.128508 
L 393.184758 251.154031 
"/>
    <path clip-path="url(#p654af27f58)" d="M 393.180972 200.158271 
L 393.036919 201.956417 
L 395.539078 200.946252 
L 390.966731 212.686117 
L 388.321701 200.368058 
L 390.631127 201.763686 
L 390.775179 199.965539 
L 393.180972 200.158271 
"/>
    <path clip-path="url(#p654af27f58)" d="M 392.975487 149.057818 
L 392.900209 150.055229 
L 394.970309 149.208374 
L 391.225294 158.956652 
L 388.985842 148.756705 
L 390.905386 149.904673 
L 390.980664 148.907262 
L 392.975487 149.057818 
"/>
    <path clip-path="url(#p654af27f58)" d="M 392.439353 98.219256 
L 392.123272 98.680534 
L 393.361909 98.851419 
L 388.817262 102.515952 
L 390.594242 96.954931 
L 391.200716 98.048371 
L 391.516798 97.587093 
L 392.439353 98.219256 
"/>
    <path clip-path="url(#p654af27f58)" d="M 391.973026 48.030549 
L 383.130707 47.993547 
L 384.327347 50.412075 
L 372.275102 46.741359 
L 384.357646 43.171639 
L 383.140807 45.580068 
L 391.983125 45.61707 
L 391.973026 48.030549 
"/>
    <path clip-path="url(#p654af27f58)" d="M 444.260006 353.199593 
L 443.571769 352.208344 
L 442.369203 352.308751 
L 441.854875 353.400407 
L 442.543112 354.391656 
L 443.745678 354.291249 
L 444.260006 353.199593 
L 443.571769 352.208344 
"/>
    <path clip-path="url(#p654af27f58)" d="M 442.008487 302.157527 
L 442.071595 301.108574 
L 439.91058 302.031312 
L 443.688518 291.7311 
L 446.204301 302.409958 
L 444.169502 301.234789 
L 444.106394 302.283743 
L 442.008487 302.157527 
"/>
    <path clip-path="url(#p654af27f58)" d="M 442.767148 251.257894 
L 442.650524 250.967602 
L 442.186563 251.491143 
L 441.891198 248.238345 
L 443.928318 250.791397 
L 443.231109 250.734353 
L 443.347733 251.024646 
L 442.767148 251.257894 
"/>
    <path clip-path="url(#p654af27f58)" d="M 442.488182 201.125949 
L 443.6943 201.08692 
L 444.263559 200.022875 
L 443.626699 198.997861 
L 442.420581 199.03689 
L 441.851322 200.100934 
L 442.488182 201.125949 
L 443.6943 201.08692 
"/>
    <path clip-path="url(#p654af27f58)" d="M 442.421721 150.008262 
L 443.627883 150.04595 
L 444.263602 149.020227 
L 443.69316 147.956817 
L 442.486998 147.91913 
L 441.851279 148.944852 
L 442.421721 150.008262 
L 443.627883 150.04595 
"/>
    <path clip-path="url(#p654af27f58)" d="M 442.829535 96.718141 
L 441.917219 97.50803 
L 442.145124 98.693063 
L 443.285346 99.088208 
L 444.197662 98.29832 
L 443.969757 97.113286 
L 442.829535 96.718141 
L 441.917219 97.50803 
"/>
    <path clip-path="url(#p654af27f58)" d="M 442.87387 47.020959 
L 442.676721 46.837388 
L 442.506729 47.415257 
L 441.085948 44.988103 
L 443.608152 46.232362 
L 443.043862 46.44309 
L 443.241011 46.62666 
L 442.87387 47.020959 
"/>
   </g>
   <g id="patch_3">
    <path d="M 136.58125 353.3 
L 136.58125 31.5 
" style="fill:none;stroke:#000000;stroke-linecap:square;stroke-linejoin:miter;"/>
   </g>
   <g id="patch_4">
    <path d="M 458.38125 353.3 
L 458.38125 31.5 
" style="fill:none;stroke:#000000;stroke-linecap:square;stroke-linejoin:miter;"/>
   </g>
   <g id="patch_5">
    <path d="M 136.58125 353.3 
L 458.38125 353.3 
" style="fill:none;stroke:#000000;stroke-linecap:square;stroke-linejoin:miter;"/>
   </g>
   <g id="patch_6">
    <path d="M 136.58125 31.5 
L 458.38125 31.5 
" style="fill:none;stroke:#000000;stroke-linecap:square;stroke-linejoin:miter;"/>
   </g>
   <g id="matplotlib.axis_1">
    <g id="xtick_1">
     <g id="line2d_1">
      <defs>
       <path d="M 0 0 
L 0 -5 
" id="md01f293919" style="stroke:#000000;"/>
      </defs>
      <g>
       <use style="stroke:#000000;" x="136.58125" xlink:href="#md01f293919" y="353.3"/>
      </g>
     </g>
     <g id="line2d_2">
      <defs>
       <path d="M 0 0 
L 0 5 
" id="mba94723972" style="stroke:#000000;"/>
      </defs>
      <g>
       <use style="stroke:#000000;" x="136.58125" xlink:href="#mba94723972" y="31.5"/>
      </g>
     </g>
     <g id="text_1">
      <!-- 0.0 -->
      <g transform="translate(120.678125 376.496875)scale(0.2 -0.2)">
       <defs>
        <path d="M 31.78125 3.421875 
Q 39.265625 3.421875 42.96875 11.625 
Q 46.6875 19.828125 46.6875 36.375 
Q 46.6875 52.984375 42.96875 61.1875 
Q 39.265625 69.390625 31.78125 69.390625 
Q 24.3125 69.390625 20.59375 61.1875 
Q 16.890625 52.984375 16.890625 36.375 
Q 16.890625 19.828125 20.59375 11.625 
Q 24.3125 3.421875 31.78125 3.421875 
z
M 31.78125 -1.421875 
Q 19.921875 -1.421875 13.25 8.53125 
Q 6.59375 18.5 6.59375 36.375 
Q 6.59375 54.296875 13.25 64.25 
Q 19.921875 74.21875 31.78125 74.21875 
Q 43.703125 74.21875 50.34375 64.25 
Q 56.984375 54.296875 56.984375 36.375 
Q 56.984375 18.5 50.34375 8.53125 
Q 43.703125 -1.421875 31.78125 -1.421875 
z
" id="DejaVuSerif-48"/>
        <path d="M 9.421875 5.078125 
Q 9.421875 7.8125 11.28125 9.71875 
Q 13.140625 11.625 15.921875 11.625 
Q 18.609375 11.625 20.5 9.71875 
Q 22.40625 7.8125 22.40625 5.078125 
Q 22.40625 2.390625 20.5 0.484375 
Q 18.609375 -1.421875 15.921875 -1.421875 
Q 13.140625 -1.421875 11.28125 0.453125 
Q 9.421875 2.34375 9.421875 5.078125 
z
" id="DejaVuSerif-46"/>
       </defs>
       <use xlink:href="#DejaVuSerif-48"/>
       <use x="63.623047" xlink:href="#DejaVuSerif-46"/>
       <use x="95.410156" xlink:href="#DejaVuSerif-48"/>
      </g>
     </g>
    </g>
    <g id="xtick_2">
     <g id="line2d_3">
      <g>
       <use style="stroke:#000000;" x="200.94125" xlink:href="#md01f293919" y="353.3"/>
      </g>
     </g>
     <g id="line2d_4">
      <g>
       <use style="stroke:#000000;" x="200.94125" xlink:href="#mba94723972" y="31.5"/>
      </g>
     </g>
     <g id="text_2">
      <!-- 0.2 -->
      <g transform="translate(185.038125 376.496875)scale(0.2 -0.2)">
       <defs>
        <path d="M 12.796875 55.515625 
L 7.328125 55.515625 
L 7.328125 68.5 
Q 12.546875 71.296875 17.84375 72.75 
Q 23.140625 74.21875 28.21875 74.21875 
Q 39.59375 74.21875 46.1875 68.703125 
Q 52.78125 63.1875 52.78125 53.71875 
Q 52.78125 43.015625 37.84375 28.125 
Q 36.671875 27 36.078125 26.421875 
L 17.671875 8.015625 
L 48.09375 8.015625 
L 48.09375 17 
L 53.8125 17 
L 53.8125 0 
L 6.78125 0 
L 6.78125 5.328125 
L 28.90625 27.390625 
Q 36.234375 34.71875 39.359375 40.84375 
Q 42.484375 46.96875 42.484375 53.71875 
Q 42.484375 61.078125 38.640625 65.234375 
Q 34.8125 69.390625 28.078125 69.390625 
Q 21.09375 69.390625 17.28125 65.921875 
Q 13.484375 62.453125 12.796875 55.515625 
z
" id="DejaVuSerif-50"/>
       </defs>
       <use xlink:href="#DejaVuSerif-48"/>
       <use x="63.623047" xlink:href="#DejaVuSerif-46"/>
       <use x="95.410156" xlink:href="#DejaVuSerif-50"/>
      </g>
     </g>
    </g>
    <g id="xtick_3">
     <g id="line2d_5">
      <g>
       <use style="stroke:#000000;" x="265.30125" xlink:href="#md01f293919" y="353.3"/>
      </g>
     </g>
     <g id="line2d_6">
      <g>
       <use style="stroke:#000000;" x="265.30125" xlink:href="#mba94723972" y="31.5"/>
      </g>
     </g>
     <g id="text_3">
      <!-- 0.4 -->
      <g transform="translate(249.398125 376.496875)scale(0.2 -0.2)">
       <defs>
        <path d="M 34.90625 24.703125 
L 34.90625 63.484375 
L 10.015625 24.703125 
z
M 56.390625 0 
L 23.1875 0 
L 23.1875 5.171875 
L 34.90625 5.171875 
L 34.90625 19.484375 
L 3.078125 19.484375 
L 3.078125 24.8125 
L 35.015625 74.21875 
L 44.671875 74.21875 
L 44.671875 24.703125 
L 58.59375 24.703125 
L 58.59375 19.484375 
L 44.671875 19.484375 
L 44.671875 5.171875 
L 56.390625 5.171875 
z
" id="DejaVuSerif-52"/>
       </defs>
       <use xlink:href="#DejaVuSerif-48"/>
       <use x="63.623047" xlink:href="#DejaVuSerif-46"/>
       <use x="95.410156" xlink:href="#DejaVuSerif-52"/>
      </g>
     </g>
    </g>
    <g id="xtick_4">
     <g id="line2d_7">
      <g>
       <use style="stroke:#000000;" x="329.66125" xlink:href="#md01f293919" y="353.3"/>
      </g>
     </g>
     <g id="line2d_8">
      <g>
       <use style="stroke:#000000;" x="329.66125" xlink:href="#mba94723972" y="31.5"/>
      </g>
     </g>
     <g id="text_4">
      <!-- 0.6 -->
      <g transform="translate(313.758125 376.496875)scale(0.2 -0.2)">
       <defs>
        <path d="M 32.71875 3.421875 
Q 39.59375 3.421875 43.296875 8.46875 
Q 47.015625 13.53125 47.015625 23 
Q 47.015625 32.46875 43.296875 37.515625 
Q 39.59375 42.578125 32.71875 42.578125 
Q 25.734375 42.578125 22.0625 37.6875 
Q 18.40625 32.8125 18.40625 23.578125 
Q 18.40625 13.875 22.109375 8.640625 
Q 25.828125 3.421875 32.71875 3.421875 
z
M 16.796875 40.140625 
Q 20.125 43.796875 24.3125 45.59375 
Q 28.515625 47.40625 33.796875 47.40625 
Q 44.671875 47.40625 51 40.859375 
Q 57.328125 34.328125 57.328125 23 
Q 57.328125 11.921875 50.515625 5.25 
Q 43.703125 -1.421875 32.328125 -1.421875 
Q 19.96875 -1.421875 13.328125 7.78125 
Q 6.6875 17 6.6875 34.078125 
Q 6.6875 53.21875 14.546875 63.71875 
Q 22.40625 74.21875 36.71875 74.21875 
Q 40.578125 74.21875 44.828125 73.484375 
Q 49.078125 72.75 53.515625 71.296875 
L 53.515625 59.28125 
L 48 59.28125 
Q 47.40625 64.203125 44.234375 66.796875 
Q 41.0625 69.390625 35.6875 69.390625 
Q 26.21875 69.390625 21.578125 62.203125 
Q 16.9375 55.03125 16.796875 40.140625 
z
" id="DejaVuSerif-54"/>
       </defs>
       <use xlink:href="#DejaVuSerif-48"/>
       <use x="63.623047" xlink:href="#DejaVuSerif-46"/>
       <use x="95.410156" xlink:href="#DejaVuSerif-54"/>
      </g>
     </g>
    </g>
    <g id="xtick_5">
     <g id="line2d_9">
      <g>
       <use style="stroke:#000000;" x="394.02125" xlink:href="#md01f293919" y="353.3"/>
      </g>
     </g>
     <g id="line2d_10">
      <g>
       <use style="stroke:#000000;" x="394.02125" xlink:href="#mba94723972" y="31.5"/>
      </g>
     </g>
     <g id="text_5">
      <!-- 0.8 -->
      <g transform="translate(378.118125 376.496875)scale(0.2 -0.2)">
       <defs>
        <path d="M 46.578125 19.921875 
Q 46.578125 27.734375 42.6875 32.046875 
Q 38.8125 36.375 31.78125 36.375 
Q 24.75 36.375 20.875 32.046875 
Q 17 27.734375 17 19.921875 
Q 17 12.0625 20.875 7.734375 
Q 24.75 3.421875 31.78125 3.421875 
Q 38.8125 3.421875 42.6875 7.734375 
Q 46.578125 12.0625 46.578125 19.921875 
z
M 44.578125 55.328125 
Q 44.578125 61.96875 41.203125 65.671875 
Q 37.84375 69.390625 31.78125 69.390625 
Q 25.78125 69.390625 22.390625 65.671875 
Q 19 61.96875 19 55.328125 
Q 19 48.640625 22.390625 44.921875 
Q 25.78125 41.21875 31.78125 41.21875 
Q 37.84375 41.21875 41.203125 44.921875 
Q 44.578125 48.640625 44.578125 55.328125 
z
M 39.3125 38.8125 
Q 47.609375 37.703125 52.25 32.6875 
Q 56.890625 27.6875 56.890625 19.921875 
Q 56.890625 9.671875 50.390625 4.125 
Q 43.890625 -1.421875 31.78125 -1.421875 
Q 19.734375 -1.421875 13.203125 4.125 
Q 6.6875 9.671875 6.6875 19.921875 
Q 6.6875 27.6875 11.328125 32.6875 
Q 15.96875 37.703125 24.3125 38.8125 
Q 16.9375 40.140625 13 44.40625 
Q 9.078125 48.6875 9.078125 55.328125 
Q 9.078125 64.109375 15.125 69.15625 
Q 21.1875 74.21875 31.78125 74.21875 
Q 42.390625 74.21875 48.4375 69.15625 
Q 54.5 64.109375 54.5 55.328125 
Q 54.5 48.6875 50.5625 44.40625 
Q 46.625 40.140625 39.3125 38.8125 
z
" id="DejaVuSerif-56"/>
       </defs>
       <use xlink:href="#DejaVuSerif-48"/>
       <use x="63.623047" xlink:href="#DejaVuSerif-46"/>
       <use x="95.410156" xlink:href="#DejaVuSerif-56"/>
      </g>
     </g>
    </g>
    <g id="xtick_6">
     <g id="line2d_11">
      <g>
       <use style="stroke:#000000;" x="458.38125" xlink:href="#md01f293919" y="353.3"/>
      </g>
     </g>
     <g id="line2d_12">
      <g>
       <use style="stroke:#000000;" x="458.38125" xlink:href="#mba94723972" y="31.5"/>
      </g>
     </g>
     <g id="text_6">
      <!-- 1.0 -->
      <g transform="translate(442.478125 376.496875)scale(0.2 -0.2)">
       <defs>
        <path d="M 14.203125 0 
L 14.203125 5.171875 
L 26.90625 5.171875 
L 26.90625 65.828125 
L 12.203125 56.296875 
L 12.203125 62.703125 
L 29.984375 74.21875 
L 36.71875 74.21875 
L 36.71875 5.171875 
L 49.421875 5.171875 
L 49.421875 0 
z
" id="DejaVuSerif-49"/>
       </defs>
       <use xlink:href="#DejaVuSerif-49"/>
       <use x="63.623047" xlink:href="#DejaVuSerif-46"/>
       <use x="95.410156" xlink:href="#DejaVuSerif-48"/>
      </g>
     </g>
    </g>
    <g id="text_7">
     <!-- $y$ -->
     <g transform="translate(291.23125 404.601562)scale(0.25 -0.25)">
      <defs>
       <path d="M 8.40625 -14.3125 
Q 10.5 -17.921875 15.71875 -17.921875 
Q 20.453125 -17.921875 23.921875 -14.59375 
Q 27.390625 -11.28125 29.515625 -6.5625 
Q 31.640625 -1.859375 32.8125 3.078125 
Q 28.375 -1.125 23.1875 -1.125 
Q 19.234375 -1.125 16.453125 0.234375 
Q 13.671875 1.609375 12.125 4.3125 
Q 10.59375 7.03125 10.59375 10.890625 
Q 10.59375 14.15625 11.46875 17.59375 
Q 12.359375 21.046875 13.9375 25.265625 
Q 15.53125 29.5 16.703125 32.625 
Q 18.015625 36.28125 18.015625 38.625 
Q 18.015625 41.609375 15.828125 41.609375 
Q 11.859375 41.609375 9.296875 37.53125 
Q 6.734375 33.453125 5.515625 28.421875 
Q 5.328125 27.78125 4.6875 27.78125 
L 3.515625 27.78125 
Q 2.6875 27.78125 2.6875 28.71875 
L 2.6875 29 
Q 4.296875 34.96875 7.609375 39.578125 
Q 10.9375 44.1875 16.015625 44.1875 
Q 19.578125 44.1875 22.046875 41.84375 
Q 24.515625 39.5 24.515625 35.890625 
Q 24.515625 34.03125 23.6875 31.984375 
Q 23.25 30.765625 21.6875 26.65625 
Q 20.125 22.5625 19.28125 19.875 
Q 18.453125 17.1875 17.921875 14.59375 
Q 17.390625 12.015625 17.390625 9.421875 
Q 17.390625 6.109375 18.796875 3.8125 
Q 20.21875 1.515625 23.296875 1.515625 
Q 29.5 1.515625 34.421875 9.078125 
L 42 39.890625 
Q 42.328125 41.21875 43.546875 42.15625 
Q 44.78125 43.109375 46.1875 43.109375 
Q 47.40625 43.109375 48.3125 42.328125 
Q 49.21875 41.546875 49.21875 40.28125 
Q 49.21875 39.703125 49.125 39.5 
L 39.203125 -0.296875 
Q 37.890625 -5.421875 34.375 -10.109375 
Q 30.859375 -14.796875 25.90625 -17.65625 
Q 20.953125 -20.515625 15.578125 -20.515625 
Q 12.984375 -20.515625 10.4375 -19.5 
Q 7.90625 -18.5 6.34375 -16.5 
Q 4.78125 -14.5 4.78125 -11.8125 
Q 4.78125 -9.078125 6.390625 -7.078125 
Q 8.015625 -5.078125 10.6875 -5.078125 
Q 12.3125 -5.078125 13.40625 -6.078125 
Q 14.5 -7.078125 14.5 -8.6875 
Q 14.5 -10.984375 12.78125 -12.6875 
Q 11.078125 -14.40625 8.796875 -14.40625 
Q 8.6875 -14.359375 8.59375 -14.328125 
Q 8.5 -14.3125 8.40625 -14.3125 
z
" id="Cmmi10-121"/>
      </defs>
      <use transform="translate(0 0.8125)" xlink:href="#Cmmi10-121"/>
     </g>
    </g>
   </g>
   <g id="matplotlib.axis_2">
    <g id="ytick_1">
     <g id="line2d_13">
      <defs>
       <path d="M 0 0 
L 5 0 
" id="mc054ebb7d7" style="stroke:#000000;"/>
      </defs>
      <g>
       <use style="stroke:#000000;" x="136.58125" xlink:href="#mc054ebb7d7" y="353.3"/>
      </g>
     </g>
     <g id="line2d_14">
      <defs>
       <path d="M 0 0 
L -5 0 
" id="m80568abf44" style="stroke:#000000;"/>
      </defs>
      <g>
       <use style="stroke:#000000;" x="458.38125" xlink:href="#m80568abf44" y="353.3"/>
      </g>
     </g>
     <g id="text_8">
      <!-- 0.0 -->
      <g transform="translate(96.775 358.81875)scale(0.2 -0.2)">
       <use xlink:href="#DejaVuSerif-48"/>
       <use x="63.623047" xlink:href="#DejaVuSerif-46"/>
       <use x="95.410156" xlink:href="#DejaVuSerif-48"/>
      </g>
     </g>
    </g>
    <g id="ytick_2">
     <g id="line2d_15">
      <g>
       <use style="stroke:#000000;" x="136.58125" xlink:href="#mc054ebb7d7" y="288.94"/>
      </g>
     </g>
     <g id="line2d_16">
      <g>
       <use style="stroke:#000000;" x="458.38125" xlink:href="#m80568abf44" y="288.94"/>
      </g>
     </g>
     <g id="text_9">
      <!-- 0.2 -->
      <g transform="translate(96.775 294.45875)scale(0.2 -0.2)">
       <use xlink:href="#DejaVuSerif-48"/>
       <use x="63.623047" xlink:href="#DejaVuSerif-46"/>
       <use x="95.410156" xlink:href="#DejaVuSerif-50"/>
      </g>
     </g>
    </g>
    <g id="ytick_3">
     <g id="line2d_17">
      <g>
       <use style="stroke:#000000;" x="136.58125" xlink:href="#mc054ebb7d7" y="224.58"/>
      </g>
     </g>
     <g id="line2d_18">
      <g>
       <use style="stroke:#000000;" x="458.38125" xlink:href="#m80568abf44" y="224.58"/>
      </g>
     </g>
     <g id="text_10">
      <!-- 0.4 -->
      <g transform="translate(96.775 230.09875)scale(0.2 -0.2)">
       <use xlink:href="#DejaVuSerif-48"/>
       <use x="63.623047" xlink:href="#DejaVuSerif-46"/>
       <use x="95.410156" xlink:href="#DejaVuSerif-52"/>
      </g>
     </g>
    </g>
    <g id="ytick_4">
     <g id="line2d_19">
      <g>
       <use style="stroke:#000000;" x="136.58125" xlink:href="#mc054ebb7d7" y="160.22"/>
      </g>
     </g>
     <g id="line2d_20">
      <g>
       <use style="stroke:#000000;" x="458.38125" xlink:href="#m80568abf44" y="160.22"/>
      </g>
     </g>
     <g id="text_11">
      <!-- 0.6 -->
      <g transform="translate(96.775 165.73875)scale(0.2 -0.2)">
       <use xlink:href="#DejaVuSerif-48"/>
       <use x="63.623047" xlink:href="#DejaVuSerif-46"/>
       <use x="95.410156" xlink:href="#DejaVuSerif-54"/>
      </g>
     </g>
    </g>
    <g id="ytick_5">
     <g id="line2d_21">
      <g>
       <use style="stroke:#000000;" x="136.58125" xlink:href="#mc054ebb7d7" y="95.86"/>
      </g>
     </g>
     <g id="line2d_22">
      <g>
       <use style="stroke:#000000;" x="458.38125" xlink:href="#m80568abf44" y="95.86"/>
      </g>
     </g>
     <g id="text_12">
      <!-- 0.8 -->
      <g transform="translate(96.775 101.37875)scale(0.2 -0.2)">
       <use xlink:href="#DejaVuSerif-48"/>
       <use x="63.623047" xlink:href="#DejaVuSerif-46"/>
       <use x="95.410156" xlink:href="#DejaVuSerif-56"/>
      </g>
     </g>
    </g>
    <g id="ytick_6">
     <g id="line2d_23">
      <g>
       <use style="stroke:#000000;" x="136.58125" xlink:href="#mc054ebb7d7" y="31.5"/>
      </g>
     </g>
     <g id="line2d_24">
      <g>
       <use style="stroke:#000000;" x="458.38125" xlink:href="#m80568abf44" y="31.5"/>
      </g>
     </g>
     <g id="text_13">
      <!-- 1.0 -->
      <g transform="translate(96.775 37.01875)scale(0.2 -0.2)">
       <use xlink:href="#DejaVuSerif-49"/>
       <use x="63.623047" xlink:href="#DejaVuSerif-46"/>
       <use x="95.410156" xlink:href="#DejaVuSerif-48"/>
      </g>
     </g>
    </g>
    <g id="text_14">
     <!-- $z$ -->
     <g transform="translate(86.575781 198.275)rotate(-90)scale(0.25 -0.25)">
      <defs>
       <path d="M 4.890625 -1.125 
Q 4.109375 -1.125 4.109375 -0.203125 
Q 4.109375 0.296875 4.296875 0.484375 
Q 6.984375 5.125 10.765625 9.34375 
Q 14.546875 13.578125 19.359375 17.890625 
Q 24.171875 22.21875 29.03125 26.5625 
Q 33.890625 30.90625 36.921875 34.28125 
L 36.53125 34.28125 
Q 34.328125 34.28125 30.078125 35.6875 
Q 25.828125 37.109375 23.390625 37.109375 
Q 20.75 37.109375 18.25 35.953125 
Q 15.765625 34.8125 15.09375 32.421875 
Q 14.9375 31.6875 14.3125 31.6875 
L 13.09375 31.6875 
Q 12.3125 31.6875 12.3125 32.71875 
L 12.3125 33.015625 
Q 13.09375 35.9375 14.875 38.46875 
Q 16.65625 41.015625 19.265625 42.59375 
Q 21.875 44.1875 24.703125 44.1875 
Q 26.703125 44.1875 28.015625 43.28125 
Q 29.34375 42.390625 31.09375 40.484375 
Q 32.859375 38.578125 33.953125 37.75 
Q 35.0625 36.921875 36.71875 36.921875 
Q 38.921875 36.921875 40.65625 38.921875 
Q 42.390625 40.921875 44.09375 43.890625 
Q 44.390625 44.1875 44.828125 44.1875 
L 46 44.1875 
Q 46.34375 44.1875 46.5625 43.9375 
Q 46.78125 43.703125 46.78125 43.3125 
Q 46.78125 42.96875 46.578125 42.671875 
Q 43.890625 38.03125 40.296875 34 
Q 36.71875 29.984375 30.921875 24.78125 
Q 25.140625 19.578125 21.15625 15.984375 
Q 17.1875 12.40625 13.71875 8.59375 
Q 14.5 8.796875 15.828125 8.796875 
Q 18.265625 8.796875 22.484375 7.390625 
Q 26.703125 6 29 6 
Q 31.5 6 34.03125 7.078125 
Q 36.578125 8.15625 38.421875 10.109375 
Q 40.28125 12.0625 40.921875 14.59375 
Q 41.15625 15.28125 41.703125 15.28125 
L 42.921875 15.28125 
Q 43.3125 15.28125 43.546875 14.96875 
Q 43.796875 14.65625 43.796875 14.3125 
Q 43.796875 14.203125 43.703125 14.015625 
Q 42.78125 10.203125 40.484375 6.765625 
Q 38.1875 3.328125 34.84375 1.09375 
Q 31.5 -1.125 27.6875 -1.125 
Q 25.78125 -1.125 24.453125 -0.234375 
Q 23.140625 0.640625 21.359375 2.5625 
Q 19.578125 4.5 18.453125 5.34375 
Q 17.328125 6.203125 15.71875 6.203125 
Q 10.75 6.203125 6.78125 -0.78125 
Q 6.453125 -1.125 6.109375 -1.125 
z
" id="Cmmi10-122"/>
      </defs>
      <use transform="translate(0 0.8125)" xlink:href="#Cmmi10-122"/>
     </g>
    </g>
   </g>
  </g>
 </g>
 <defs>
  <clipPath id="p654af27f58">
   <rect height="321.8" width="321.8" x="136.58125" y="31.5"/>
  </clipPath>
 </defs>
</svg>
